
/* XPM */
static char *ade294b008e64c12cbc0ee1c64d3988e[] = {
/* columns rows colors chars-per-pixel */
"64 64 5 1 ",
"  c #FF0000",
"1 c #00FF00",
"2 c #0000FF",
"3 c #00FFFF",
"4 c #FFFFFF",
/* pixels */
"                                                                ",
"                                                                ",
"  11111111111111111111111111111  22222222222222222222222222222  ",
"  11111111111111111111111111111  22222222222222222222222222222  ",
"  11111111111111111111111111111  22222222222222222222222222222  ",
"  11111111111111111111111111111  22222222222222222222222222222  ",
"  11111111111111111111111111111  22222222222222222222222222222  ",
"  11111111111111111111111111111  22222222222222222222222222222  ",
"  11111111111111111111111111111  22222222222222222222222222222  ",
"  11111111111111111111111111111  22222222222222222222222222222  ",
"  11111111111111111111111111111  22222222222222222222222222222  ",
"  11111111111111111111111111111  22222222222222222222222222222  ",
"  11111111111111111111111111111  22222222222222222222222222222  ",
"  11111111111111111111111111111  22222222222222222222222222222  ",
"  11111111111111111111111111111  22222222222222222222222222222  ",
"  11111111111111111111111111111  22222222222222222222222222222  ",
"  11111111111111111111111111111  22222222222222222222222222222  ",
"  11111111111111111111111111111  22222222222222222222222222222  ",
"  11111111111111111111111111111  22222222222222222222222222222  ",
"  11111111111111111111111111111  22222222222222222222222222222  ",
"  11111111111111111111111111111  22222222222222222222222222222  ",
"  11111111111111111111111111111  22222222222222222222222222222  ",
"  11111111111111111111111111111  22222222222222222222222222222  ",
"  11111111111111111111111111111  22222222222222222222222222222  ",
"  11111111111111111111111111111  22222222222222222222222222222  ",
"  11111111111111111111111111111  22222222222222222222222222222  ",
"  11111111111111111111111111111  22222222222222222222222222222  ",
"  11111111111111111111111111111  22222222222222222222222222222  ",
"  11111111111111111111111111111  22222222222222222222222222222  ",
"  11111111111111111111111111111  22222222222222222222222222222  ",
"  11111111111111111111111111111  22222222222222222222222222222  ",
"                                                                ",
"                                                                ",
"  33333333333333333333333333333  44444444444444444444444444444  ",
"  33333333333333333333333333333  44444444444444444444444444444  ",
"  33333333333333333333333333333  44444444444444444444444444444  ",
"  33333333333333333333333333333  44444444444444444444444444444  ",
"  33333333333333333333333333333  44444444444444444444444444444  ",
"  33333333333333333333333333333  44444444444444444444444444444  ",
"  33333333333333333333333333333  44444444444444444444444444444  ",
"  33333333333333333333333333333  44444444444444444444444444444  ",
"  33333333333333333333333333333  44444444444444444444444444444  ",
"  33333333333333333333333333333  44444444444444444444444444444  ",
"  33333333333333333333333333333  44444444444444444444444444444  ",
"  33333333333333333333333333333  44444444444444444444444444444  ",
"  33333333333333333333333333333  44444444444444444444444444444  ",
"  33333333333333333333333333333  44444444444444444444444444444  ",
"  33333333333333333333333333333  44444444444444444444444444444  ",
"  33333333333333333333333333333  44444444444444444444444444444  ",
"  33333333333333333333333333333  44444444444444444444444444444  ",
"  33333333333333333333333333333  44444444444444444444444444444  ",
"  33333333333333333333333333333  44444444444444444444444444444  ",
"  33333333333333333333333333333  44444444444444444444444444444  ",
"  33333333333333333333333333333  44444444444444444444444444444  ",
"  33333333333333333333333333333  44444444444444444444444444444  ",
"  33333333333333333333333333333  44444444444444444444444444444  ",
"  33333333333333333333333333333  44444444444444444444444444444  ",
"  33333333333333333333333333333  44444444444444444444444444444  ",
"  33333333333333333333333333333  44444444444444444444444444444  ",
"  33333333333333333333333333333  44444444444444444444444444444  ",
"  33333333333333333333333333333  44444444444444444444444444444  ",
"  33333333333333333333333333333  44444444444444444444444444444  ",
"                                                                ",
"                                                                "
};